<?xml version="1.0" encoding="UTF-8" ?>
<!DOCTYPE svg PUBLIC "-//W3C//DTD SVG 1.1//EN" "http://www.w3.org/Graphics/SVG/1.1/DTD/svg11.dtd">
<svg width="1000pt" height="1000pt" viewBox="0 0 1000 1000" version="1.1" xmlns="http://www.w3.org/2000/svg">
<g id="#ffffffff">
</g>
<g id="#000000ff">
<path fill="#000000" opacity="1.00" d=" M 331.15 89.18 C 370.00 94.25 408.91 98.86 447.91 102.56 C 465.24 104.11 482.59 105.68 500.00 105.87 C 520.09 105.56 540.12 103.64 560.11 101.75 C 596.27 98.19 632.34 93.84 668.38 89.22 C 677.38 134.15 686.25 179.11 695.19 224.05 C 713.70 318.98 734.72 413.64 744.90 509.94 C 747.89 540.27 750.29 570.84 748.19 601.31 C 747.31 615.36 744.26 629.20 739.58 642.46 C 729.12 672.78 714.71 701.65 697.90 728.92 C 682.84 753.18 665.58 776.16 645.59 796.58 C 623.59 819.06 598.04 838.54 569.04 851.04 C 538.16 864.52 503.33 869.00 470.13 862.96 C 436.87 857.12 406.09 841.08 379.95 820.04 C 350.71 796.50 326.51 767.23 306.18 735.81 C 288.75 708.63 273.87 679.74 262.62 649.46 C 257.84 636.40 253.71 622.97 252.30 609.08 C 249.54 583.63 250.89 557.96 252.77 532.49 C 259.16 456.00 273.52 380.47 288.50 305.28 C 302.75 233.26 316.81 161.19 331.15 89.18 M 301.09 344.54 C 289.71 403.98 279.24 463.69 273.58 523.98 C 271.28 550.67 269.46 577.59 271.90 604.34 C 273.22 619.89 278.35 634.75 283.96 649.19 C 292.16 670.03 302.17 690.14 313.49 709.46 C 331.86 740.61 353.88 769.89 380.68 794.31 C 403.53 814.98 430.34 832.28 460.38 840.14 C 462.47 825.99 464.85 811.88 467.68 797.87 C 471.11 781.24 474.77 764.57 480.80 748.66 C 483.02 743.30 485.21 737.58 489.54 733.54 C 494.41 730.28 500.86 730.34 506.37 731.69 C 511.61 732.97 514.11 738.25 516.35 742.64 C 522.38 755.76 525.78 769.89 529.08 783.89 C 533.31 802.50 536.54 821.33 539.39 840.20 C 573.84 830.98 603.94 809.86 628.91 784.91 C 651.55 762.31 670.51 736.22 686.70 708.69 C 700.97 684.08 713.45 658.28 722.20 631.16 C 729.28 610.24 729.26 587.81 728.81 565.98 C 727.89 535.99 724.65 506.13 720.75 476.41 C 714.80 432.18 707.24 388.16 698.45 344.41 C 649.03 357.56 599.37 370.07 548.99 378.99 C 527.85 382.44 506.38 386.02 484.92 383.72 C 460.55 381.39 436.50 376.60 412.57 371.60 C 375.14 363.73 338.12 354.02 301.09 344.54 Z" />
<path fill="#000000" opacity="1.00" d=" M 295.88 447.29 C 319.41 422.05 343.27 397.11 366.97 372.03 C 403.17 400.74 439.32 429.50 475.52 458.22 C 469.15 465.95 462.63 473.57 456.09 481.15 C 436.97 464.62 417.40 448.41 395.83 435.15 C 389.98 431.72 383.98 428.40 377.49 426.37 C 370.49 424.17 363.06 425.65 356.05 427.00 C 335.31 431.52 315.57 439.55 295.88 447.29 Z" />
<path fill="#000000" opacity="1.00" d=" M 524.19 458.27 C 560.39 429.52 596.54 400.71 632.80 372.05 C 656.60 397.23 680.50 422.31 704.20 447.58 C 685.31 439.79 666.18 432.34 646.28 427.57 C 637.50 425.65 627.95 423.63 619.35 427.36 C 604.46 433.41 591.43 443.10 578.57 452.57 C 566.45 461.57 555.07 471.52 543.43 481.11 C 537.16 473.38 530.53 465.94 524.19 458.27 Z" />
<path fill="#000000" opacity="1.00" d=" M 363.00 472.22 C 381.05 467.87 400.75 467.39 418.03 474.95 C 426.11 478.42 433.55 483.28 440.26 488.95 C 433.39 495.59 424.40 499.39 415.53 502.55 C 401.21 507.35 386.17 510.38 371.03 510.35 C 357.06 509.96 342.51 506.52 331.43 497.60 C 329.21 495.75 327.15 493.67 325.65 491.18 C 335.60 480.93 349.41 475.64 363.00 472.22 Z" />
<path fill="#000000" opacity="1.00" d=" M 559.49 488.97 C 571.92 478.25 587.42 470.68 603.93 469.39 C 621.75 468.05 639.87 471.59 656.15 478.87 C 662.82 481.91 669.10 485.94 674.17 491.28 C 666.91 501.38 654.66 506.39 642.85 508.82 C 624.65 512.42 605.88 509.06 588.32 503.89 C 578.02 500.57 567.46 496.56 559.49 488.97 Z" />
<path fill="#000000" opacity="1.00" d=" M 641.29 640.28 C 662.84 624.11 682.69 605.81 702.10 587.17 C 694.97 607.10 686.84 626.68 677.88 645.85 C 669.96 662.37 661.65 678.88 650.44 693.45 C 645.05 700.44 638.37 707.06 629.57 709.36 C 612.22 714.15 593.84 713.05 576.20 710.57 C 564.04 708.56 551.53 705.87 541.18 698.83 C 530.59 692.12 521.00 683.62 509.34 678.74 C 501.70 676.45 492.92 676.74 485.90 680.79 C 475.00 686.59 465.61 694.74 455.00 701.02 C 447.25 705.54 438.43 707.69 429.72 709.49 C 414.69 712.32 399.26 713.47 384.01 712.01 C 374.20 710.94 363.69 708.76 356.50 701.47 C 345.81 690.98 338.40 677.74 331.27 664.71 C 318.29 639.84 307.27 613.95 297.82 587.54 C 312.93 601.65 327.97 615.89 344.01 628.96 C 354.39 637.38 364.96 645.76 376.74 652.17 C 385.04 656.80 394.72 657.82 404.04 658.40 C 412.84 658.69 421.81 658.62 430.36 656.27 C 436.06 654.73 440.71 650.85 444.95 646.91 C 455.60 636.91 464.22 624.85 475.70 615.72 C 479.71 612.44 484.67 610.58 489.79 610.00 C 497.69 609.00 505.79 609.05 513.60 610.67 C 518.72 611.66 523.11 614.70 526.95 618.09 C 538.84 628.52 547.89 641.87 560.38 651.66 C 566.44 656.59 574.46 657.71 582.00 658.30 C 591.02 658.81 600.13 658.50 609.05 656.92 C 621.30 655.01 631.45 647.27 641.29 640.28 Z" />
</g>
</svg>
