<?xml version="1.0" encoding="UTF-8" ?>
<!DOCTYPE svg PUBLIC "-//W3C//DTD SVG 1.1//EN" "http://www.w3.org/Graphics/SVG/1.1/DTD/svg11.dtd">
<svg width="1000pt" height="1000pt" viewBox="0 0 1000 1000" version="1.1" xmlns="http://www.w3.org/2000/svg">
<g id="#ffffffff">
</g>
<g id="#000000ff">
<path fill="#000000" opacity="1.00" d=" M 545.40 88.42 C 568.76 87.75 592.14 89.12 615.35 91.75 C 637.45 94.33 659.49 98.33 680.62 105.44 C 697.21 111.10 713.40 118.77 726.87 130.16 C 738.42 139.87 747.52 152.71 751.77 167.27 C 757.22 185.53 755.39 205.16 750.26 223.27 C 742.25 251.05 727.32 276.29 710.24 299.41 C 710.20 299.81 710.13 300.62 710.09 301.02 C 719.47 345.50 727.99 390.18 734.98 435.11 C 742.03 481.11 748.17 527.40 748.99 573.99 C 749.09 594.51 748.30 615.41 741.96 635.10 C 732.97 663.77 719.96 691.04 705.03 717.05 C 689.43 743.89 671.29 769.36 650.00 792.00 C 629.21 814.06 605.23 833.49 577.95 846.94 C 548.36 861.64 514.65 868.31 481.73 864.62 C 447.08 861.02 414.37 846.10 386.71 825.28 C 356.91 802.90 332.19 774.38 311.34 743.64 C 292.03 714.85 275.72 684.00 263.41 651.59 C 257.77 636.61 253.10 621.11 251.87 605.08 C 249.38 576.07 251.43 546.91 254.04 517.99 C 260.42 453.38 271.81 389.39 284.48 325.76 C 288.84 293.15 297.21 260.93 310.90 230.95 C 324.72 200.54 344.28 172.53 369.37 150.34 C 392.53 129.68 420.16 114.28 449.54 104.42 C 480.37 93.97 512.93 89.30 545.40 88.42 M 574.33 309.75 C 523.14 313.27 472.02 319.28 421.80 330.02 C 378.30 339.56 334.90 352.14 295.64 373.59 C 285.89 426.26 277.37 479.24 272.83 532.64 C 270.99 556.77 269.63 581.08 272.00 605.23 C 273.39 620.46 278.47 635.02 283.96 649.20 C 292.16 670.04 302.17 690.14 313.49 709.46 C 331.86 740.61 353.88 769.89 380.68 794.31 C 403.52 815.00 430.34 832.22 460.35 840.17 C 462.55 825.71 464.93 811.28 467.86 796.96 C 471.24 780.67 474.86 764.33 480.77 748.74 C 483.00 743.35 485.19 737.60 489.54 733.53 C 494.42 730.28 500.86 730.34 506.38 731.69 C 511.62 732.97 514.11 738.25 516.35 742.64 C 522.38 755.76 525.78 769.89 529.08 783.89 C 533.32 802.51 536.52 821.35 539.41 840.22 C 570.85 831.78 598.74 813.37 622.32 791.32 C 644.16 770.82 662.71 747.02 678.73 721.77 C 693.18 698.89 705.65 674.74 715.64 649.59 C 721.30 634.92 726.60 619.85 727.85 604.06 C 730.21 578.42 728.54 552.61 726.43 527.01 C 723.73 496.64 719.63 466.40 714.92 436.28 C 708.02 392.82 699.94 349.54 690.72 306.52 C 651.91 306.09 613.07 307.16 574.33 309.75 Z" />
<path fill="#000000" opacity="1.00" d=" M 295.78 447.36 C 319.38 422.14 343.21 397.12 366.97 372.05 C 403.18 400.75 439.35 429.50 475.52 458.25 C 469.12 465.94 462.66 473.59 456.08 481.13 C 436.95 464.63 417.40 448.40 395.83 435.15 C 389.98 431.72 383.99 428.41 377.50 426.37 C 370.19 424.09 362.45 425.75 355.16 427.19 C 334.71 431.79 315.20 439.65 295.78 447.36 Z" />
<path fill="#000000" opacity="1.00" d=" M 524.21 458.28 C 560.37 429.50 596.54 400.74 632.78 372.07 C 656.64 397.20 680.49 422.35 704.23 447.59 C 686.67 440.33 668.90 433.44 650.50 428.60 C 643.78 426.93 636.94 425.36 629.98 425.24 C 622.46 425.17 615.59 428.79 609.10 432.18 C 585.29 445.67 564.36 463.52 543.54 481.12 C 537.13 473.48 530.58 465.95 524.21 458.28 Z" />
<path fill="#000000" opacity="1.00" d=" M 363.78 472.04 C 381.60 467.86 401.00 467.50 418.03 474.95 C 426.10 478.42 433.55 483.26 440.25 488.95 C 433.40 495.61 424.39 499.38 415.53 502.55 C 401.52 507.26 386.82 510.22 372.01 510.36 C 357.94 510.14 343.29 506.82 331.98 498.05 C 329.56 496.09 327.31 493.88 325.63 491.24 C 335.73 480.73 349.91 475.45 363.78 472.04 Z" />
<path fill="#000000" opacity="1.00" d=" M 559.49 488.97 C 571.92 478.25 587.43 470.67 603.94 469.39 C 621.76 468.05 639.87 471.60 656.15 478.87 C 662.81 481.93 669.15 485.92 674.16 491.33 C 666.46 501.90 653.44 506.92 640.98 509.17 C 622.81 512.24 604.23 508.74 586.82 503.42 C 577.04 500.15 567.06 496.21 559.49 488.97 Z" />
<path fill="#000000" opacity="1.00" d=" M 634.25 645.29 C 658.68 628.15 680.58 607.73 702.12 587.16 C 694.87 607.32 686.65 627.15 677.55 646.55 C 669.93 662.40 661.92 678.22 651.32 692.32 C 645.73 699.72 638.86 706.93 629.58 709.36 C 612.83 714.01 595.09 713.08 578.04 710.84 C 567.64 709.24 557.12 707.16 547.58 702.55 C 534.25 695.58 523.30 684.59 509.34 678.74 C 501.70 676.45 492.93 676.74 485.90 680.79 C 470.68 688.67 458.46 702.14 441.53 706.63 C 423.68 711.65 404.93 713.49 386.44 712.24 C 376.31 711.28 365.34 709.58 357.55 702.43 C 347.66 693.29 340.72 681.52 334.12 669.92 C 319.73 643.50 307.97 615.70 297.77 587.43 C 314.04 602.80 330.42 618.11 347.90 632.12 C 357.27 639.54 366.80 646.90 377.39 652.51 C 385.24 656.73 394.30 657.73 403.05 658.34 C 412.17 658.72 421.48 658.70 430.35 656.27 C 436.29 654.67 441.07 650.55 445.46 646.43 C 455.88 636.53 464.40 624.70 475.70 615.72 C 479.92 612.24 485.22 610.43 490.62 609.89 C 498.51 609.01 506.61 609.07 514.38 610.85 C 519.90 612.12 524.43 615.76 528.52 619.50 C 539.66 629.70 548.45 642.30 560.38 651.66 C 566.44 656.59 574.45 657.71 581.99 658.30 C 591.87 658.85 601.87 658.46 611.57 656.42 C 619.95 654.71 627.23 649.93 634.25 645.29 Z" />
</g>
</svg>
