<?xml version="1.0" encoding="UTF-8" ?>
<!DOCTYPE svg PUBLIC "-//W3C//DTD SVG 1.1//EN" "http://www.w3.org/Graphics/SVG/1.1/DTD/svg11.dtd">
<svg width="1000pt" height="1000pt" viewBox="0 0 1000 1000" version="1.1" xmlns="http://www.w3.org/2000/svg">
<g id="#ffffffff">
</g>
<g id="#000000ff">
<path fill="#000000" opacity="1.00" d=" M 546.81 22.98 C 562.88 19.20 579.72 15.80 596.19 19.01 C 606.69 20.96 615.06 28.27 621.89 36.07 C 633.59 49.69 642.42 65.47 650.61 81.37 C 669.14 118.53 683.74 157.55 696.31 197.09 C 715.92 187.67 736.38 179.75 757.75 175.38 C 774.19 172.09 791.33 170.70 807.87 174.13 C 815.49 175.55 821.38 181.04 827.14 185.83 C 845.90 202.80 862.21 222.24 878.28 241.71 C 881.96 246.48 886.17 250.88 889.35 256.01 C 830.11 273.16 770.59 289.33 710.96 305.09 C 724.62 370.76 736.71 436.83 744.21 503.51 C 747.23 531.90 749.59 560.45 748.83 589.03 C 748.40 601.55 747.44 614.16 744.38 626.35 C 741.16 639.09 736.59 651.44 731.59 663.57 C 720.39 690.43 706.56 716.18 690.51 740.46 C 673.07 766.73 652.86 791.32 629.15 812.18 C 605.32 833.13 577.58 850.23 546.91 858.96 C 513.34 868.70 476.81 867.63 443.83 856.12 C 412.46 845.34 384.57 826.09 360.81 803.19 C 334.88 778.16 313.28 748.90 295.16 717.82 C 284.29 699.09 274.61 679.65 266.51 659.57 C 259.94 643.00 253.91 625.95 252.19 608.10 C 249.60 583.24 250.89 558.17 252.71 533.31 C 257.88 470.18 268.70 407.68 280.53 345.51 C 276.46 313.51 273.89 281.26 272.40 249.02 C 270.89 212.46 270.64 175.69 275.19 139.32 C 277.25 124.17 280.09 108.97 285.68 94.68 C 288.85 86.81 292.91 79.04 299.13 73.13 C 306.87 66.12 317.03 62.62 327.00 60.16 C 364.44 51.86 403.08 55.70 441.04 52.75 C 452.72 51.92 464.05 48.75 475.18 45.29 C 499.05 37.84 522.51 28.99 546.81 22.98 M 541.38 346.22 C 516.70 351.39 491.89 356.18 466.74 358.42 C 416.06 363.06 364.77 360.43 314.70 351.46 C 309.87 350.71 305.14 349.30 300.26 348.98 C 288.80 408.92 278.40 469.17 273.05 530.00 C 271.08 554.70 269.61 579.58 271.90 604.31 C 273.50 622.67 280.20 640.03 287.10 656.95 C 301.30 690.51 319.54 722.41 341.61 751.42 C 364.29 780.91 391.40 807.80 424.31 825.68 C 435.79 831.70 447.76 837.19 460.45 840.03 C 464.47 812.86 469.25 785.68 477.11 759.32 C 479.81 751.11 482.44 742.63 487.59 735.57 C 490.35 731.66 495.54 730.85 499.99 730.85 C 504.22 730.88 509.06 731.65 511.84 735.20 C 514.94 739.08 516.94 743.70 518.79 748.27 C 522.77 758.48 525.56 769.10 528.12 779.73 C 532.81 799.67 536.34 819.86 539.36 840.12 C 549.17 837.81 558.56 833.93 567.66 829.65 C 592.94 817.48 615.06 799.57 634.36 779.38 C 655.73 756.79 673.82 731.25 689.24 704.29 C 702.91 680.05 714.96 654.73 723.15 628.08 C 727.27 615.15 728.43 601.52 728.84 588.02 C 729.46 566.33 728.00 544.64 726.07 523.04 C 721.04 470.07 712.36 417.52 702.56 365.25 C 698.97 346.86 695.63 328.41 691.35 310.17 C 641.59 323.11 591.68 335.55 541.38 346.22 Z" />
<path fill="#000000" opacity="1.00" d=" M 295.99 447.17 C 319.49 421.98 343.30 397.06 366.97 372.04 C 403.14 400.71 439.25 429.45 475.40 458.13 C 469.30 466.06 462.58 473.52 456.08 481.13 C 436.95 464.63 417.40 448.40 395.83 435.15 C 389.98 431.72 383.97 428.40 377.48 426.37 C 370.79 424.25 363.68 425.55 356.97 426.81 C 335.92 431.22 315.98 439.50 295.99 447.17 Z" />
<path fill="#000000" opacity="1.00" d=" M 524.21 458.24 C 560.42 429.53 596.53 400.68 632.82 372.07 C 656.59 397.25 680.53 422.27 704.15 447.58 C 685.58 439.86 666.72 432.58 647.15 427.77 C 637.87 425.68 627.71 423.48 618.65 427.63 C 602.32 434.56 588.08 445.43 574.02 456.05 C 563.46 463.98 553.67 472.88 543.36 481.07 C 537.17 473.30 530.47 465.95 524.21 458.24 Z" />
<path fill="#000000" opacity="1.00" d=" M 357.74 473.63 C 375.58 468.53 395.13 466.90 412.94 472.99 C 422.97 476.44 432.18 482.07 440.22 488.95 C 433.17 495.84 423.82 499.63 414.67 502.85 C 399.66 507.72 383.85 510.87 368.01 510.23 C 353.71 509.30 338.62 505.16 328.31 494.68 C 327.21 493.42 324.73 491.43 326.95 489.97 C 335.35 481.66 346.59 476.97 357.74 473.63 Z" />
<path fill="#000000" opacity="1.00" d=" M 559.58 488.97 C 572.40 477.71 588.75 470.14 605.91 469.25 C 623.09 468.35 640.47 471.84 656.15 478.87 C 662.80 481.89 669.03 485.94 674.14 491.20 C 667.23 501.17 655.23 506.09 643.78 508.63 C 625.30 512.54 606.17 509.15 588.32 503.89 C 578.06 500.54 567.45 496.63 559.58 488.97 Z" />
<path fill="#000000" opacity="1.00" d=" M 637.22 643.22 C 660.39 626.46 681.46 606.98 702.05 587.19 C 695.02 607.14 686.81 626.68 677.88 645.86 C 671.24 659.84 664.17 673.68 655.50 686.53 C 651.19 692.74 646.57 698.88 640.69 703.70 C 634.28 708.87 625.96 710.67 617.99 711.74 C 602.20 713.61 586.16 712.45 570.57 709.60 C 561.26 707.73 551.82 705.40 543.65 700.38 C 533.78 694.34 524.87 686.84 514.72 681.26 C 505.88 676.00 494.11 675.93 485.25 681.14 C 474.63 686.92 465.39 694.87 455.00 701.01 C 448.71 704.72 441.63 706.80 434.56 708.45 C 422.58 711.18 410.29 712.55 398.00 712.64 C 387.75 712.64 377.28 711.96 367.55 708.47 C 358.80 705.38 352.65 697.94 347.24 690.76 C 335.70 674.82 327.07 657.04 318.80 639.25 C 311.21 622.33 303.99 605.22 297.89 587.70 C 319.66 607.81 341.18 628.45 365.62 645.37 C 372.51 649.95 379.67 654.62 387.89 656.35 C 397.41 658.42 407.23 658.82 416.94 658.35 C 424.81 657.81 433.22 656.71 439.54 651.53 C 452.17 641.55 461.31 627.95 473.50 617.48 C 477.22 614.29 481.49 611.51 486.39 610.61 C 495.34 608.86 504.67 608.89 513.61 610.67 C 519.20 611.76 523.88 615.27 528.00 619.03 C 537.77 627.93 545.79 638.54 555.47 647.54 C 559.98 651.74 565.16 655.61 571.35 656.78 C 583.73 659.38 596.62 658.91 609.05 656.92 C 619.62 655.36 628.62 649.16 637.22 643.22 Z" />
</g>
</svg>
