<?xml version="1.0" encoding="UTF-8" ?>
<!DOCTYPE svg PUBLIC "-//W3C//DTD SVG 1.1//EN" "http://www.w3.org/Graphics/SVG/1.1/DTD/svg11.dtd">
<svg width="1000pt" height="1000pt" viewBox="0 0 1000 1000" version="1.1" xmlns="http://www.w3.org/2000/svg">
<g id="#ffffffff">
</g>
<g id="#000000ff">
<path fill="#000000" opacity="1.00" d=" M 330.49 89.60 C 331.63 88.95 332.95 89.78 334.14 89.91 C 367.16 98.07 400.37 105.53 433.78 112.00 C 452.40 115.47 471.09 118.85 489.99 120.43 C 503.92 121.69 517.87 119.78 531.65 117.83 C 577.29 110.82 622.32 100.34 667.18 89.51 C 668.17 89.24 669.08 89.43 669.92 90.07 C 699.27 107.20 725.42 130.13 745.00 158.00 C 768.41 190.94 782.16 230.02 788.07 269.82 C 795.34 318.68 791.95 368.58 783.05 416.99 C 775.25 458.70 763.38 499.65 747.89 539.15 C 747.23 541.72 747.95 544.42 747.97 547.04 C 749.23 569.74 749.90 592.65 746.62 615.22 C 743.91 632.21 737.77 648.43 731.29 664.29 C 718.17 695.54 701.56 725.33 681.92 752.95 C 663.90 778.11 643.11 801.51 618.83 820.81 C 594.69 840.02 566.72 855.00 536.43 861.61 C 503.59 868.95 468.65 866.02 437.34 853.75 C 404.58 841.08 375.98 819.40 351.83 794.17 C 327.14 768.39 306.59 738.85 289.40 707.63 C 279.01 688.68 269.81 669.05 262.36 648.76 C 257.43 635.29 253.35 621.39 252.07 607.06 C 249.95 585.76 250.68 564.31 252.02 542.99 C 252.47 539.61 250.51 536.65 249.47 533.58 C 233.85 492.78 222.09 450.46 214.75 407.39 C 207.29 362.74 204.71 316.92 211.11 271.97 C 216.36 235.08 228.19 198.79 248.29 167.25 C 268.64 135.02 297.49 108.50 330.49 89.60 M 325.50 351.10 C 308.58 390.99 292.90 431.45 279.62 472.70 C 277.00 489.73 275.24 506.89 273.58 524.03 C 271.28 550.42 269.52 577.02 271.81 603.48 C 273.32 622.13 280.08 639.78 287.10 656.95 C 301.20 690.29 319.30 721.99 341.18 750.85 C 363.21 779.60 389.39 805.88 421.08 823.89 C 433.50 830.75 446.58 836.85 460.46 840.05 C 464.50 812.61 469.34 785.16 477.36 758.56 C 479.99 750.61 482.57 742.40 487.59 735.58 C 490.34 731.66 495.53 730.86 499.99 730.85 C 504.46 730.84 509.59 731.82 512.30 735.77 C 517.62 743.28 520.36 752.24 523.13 760.93 C 530.69 786.83 535.33 813.48 539.34 840.12 C 563.01 834.07 584.72 821.78 603.99 806.96 C 627.57 788.67 647.68 766.22 665.07 742.04 C 683.04 716.95 698.27 689.92 710.64 661.65 C 716.71 647.44 722.38 632.96 725.81 617.87 C 729.52 598.83 729.26 579.28 728.60 559.98 C 727.44 532.21 724.43 504.55 720.84 477.00 C 720.53 474.32 719.66 471.76 718.81 469.22 C 705.53 429.17 690.59 389.67 673.81 350.96 C 638.25 359.89 602.64 368.77 566.63 375.74 C 547.89 379.31 529.06 382.66 510.01 384.08 C 494.83 385.33 479.63 383.36 464.61 381.25 C 422.40 374.74 380.83 364.75 339.43 354.39 C 334.78 353.33 330.25 351.69 325.50 351.10 Z" />
<path fill="#000000" opacity="1.00" d=" M 296.00 447.15 C 319.50 421.96 343.32 397.07 366.97 372.02 C 403.14 400.70 439.24 429.48 475.44 458.13 C 469.28 466.03 462.59 473.52 456.08 481.14 C 440.64 467.72 424.81 454.68 407.98 443.03 C 398.83 436.82 389.44 430.70 379.01 426.86 C 371.93 424.13 364.20 425.41 356.97 426.81 C 335.92 431.19 316.01 439.52 296.00 447.15 Z" />
<path fill="#000000" opacity="1.00" d=" M 524.19 458.25 C 560.42 429.54 596.53 400.68 632.82 372.05 C 656.57 397.26 680.54 422.26 704.15 447.59 C 685.57 439.85 666.70 432.58 647.12 427.77 C 638.08 425.76 628.23 423.52 619.34 427.36 C 604.45 433.42 591.42 443.10 578.57 452.57 C 566.64 461.51 555.27 471.16 543.93 480.82 L 543.29 480.77 C 536.89 473.29 530.50 465.80 524.19 458.25 Z" />
<path fill="#000000" opacity="1.00" d=" M 358.53 473.41 C 376.14 468.49 395.39 466.97 412.93 472.99 C 422.97 476.44 432.18 482.08 440.23 488.95 C 433.40 495.62 424.39 499.38 415.54 502.55 C 400.59 507.52 384.85 510.71 369.04 510.28 C 354.40 509.49 338.88 505.40 328.31 494.68 C 327.21 493.42 324.73 491.43 326.95 489.97 C 335.56 481.48 347.10 476.74 358.53 473.41 Z" />
<path fill="#000000" opacity="1.00" d=" M 559.55 488.97 C 572.41 477.75 588.73 470.12 605.91 469.24 C 623.61 468.34 641.53 472.02 657.56 479.54 C 663.71 482.44 669.38 486.35 674.16 491.20 C 667.40 500.92 655.79 505.84 644.63 508.45 C 626.42 512.54 607.49 509.38 589.82 504.34 C 579.03 500.95 567.86 496.96 559.55 488.97 Z" />
<path fill="#000000" opacity="1.00" d=" M 653.65 630.68 C 670.45 616.95 686.48 602.30 702.04 587.19 C 694.50 608.56 685.65 629.48 675.93 649.96 C 667.99 666.07 659.70 682.26 648.22 696.19 C 643.01 702.61 636.19 707.97 627.99 709.82 C 610.53 714.13 592.21 712.98 574.58 710.31 C 565.12 708.64 555.55 706.60 546.93 702.22 C 533.90 695.20 523.07 684.51 509.35 678.74 C 501.71 676.46 492.93 676.74 485.90 680.79 C 470.67 688.67 458.44 702.16 441.49 706.64 C 423.14 711.78 403.82 713.64 384.83 712.10 C 374.99 711.05 364.40 709.10 357.02 701.95 C 346.37 691.78 339.03 678.78 331.97 666.01 C 318.70 640.82 307.49 614.54 297.91 587.74 C 307.32 596.08 316.19 605.04 325.71 613.27 C 341.08 626.73 356.60 640.28 374.20 650.77 C 385.74 657.93 399.80 658.56 413.00 658.50 C 422.13 658.16 432.12 657.53 439.54 651.53 C 452.17 641.55 461.31 627.95 473.50 617.49 C 481.27 609.85 492.72 609.03 503.02 609.40 C 510.19 609.69 517.83 610.67 523.58 615.37 C 536.10 625.13 545.15 638.48 557.03 648.93 C 560.56 652.01 564.45 654.87 569.02 656.16 C 577.75 658.65 586.95 658.71 595.96 658.38 C 604.97 657.79 614.33 656.85 622.41 652.47 C 633.66 646.51 643.72 638.59 653.65 630.68 Z" />
</g>
</svg>
