<?xml version="1.0" encoding="UTF-8" ?>
<!DOCTYPE svg PUBLIC "-//W3C//DTD SVG 1.1//EN" "http://www.w3.org/Graphics/SVG/1.1/DTD/svg11.dtd">
<svg width="1000pt" height="1000pt" viewBox="0 0 1000 1000" version="1.1" xmlns="http://www.w3.org/2000/svg">
<g id="#ffffffff">
</g>
<g id="#000000ff">
<path fill="#000000" opacity="1.00" d=" M 257.92 306.76 C 269.42 298.47 281.29 290.60 293.73 283.79 C 412.14 283.69 530.56 283.78 648.98 283.75 C 667.98 283.81 686.99 283.63 705.98 283.84 C 732.47 298.99 757.77 316.87 778.66 339.28 C 792.73 354.49 804.59 372.15 811.03 391.97 C 817.54 411.63 817.97 433.12 812.72 453.13 C 804.99 482.88 786.99 508.93 765.80 530.76 C 760.13 536.56 754.23 542.12 747.99 547.30 C 749.19 568.66 749.77 590.18 747.16 611.46 C 745.04 628.54 739.07 644.83 732.76 660.74 C 721.27 688.85 706.89 715.75 690.12 741.06 C 673.03 766.70 653.30 790.73 630.23 811.23 C 607.70 831.22 581.72 847.81 552.94 857.12 C 520.49 867.80 484.83 868.40 452.06 858.73 C 419.66 849.33 390.60 830.68 365.91 807.99 C 339.46 783.60 317.40 754.76 298.83 724.03 C 287.21 704.67 276.87 684.53 268.20 663.67 C 262.13 648.84 256.46 633.70 253.56 617.89 C 249.75 594.64 250.49 570.94 251.73 547.50 C 236.68 534.86 223.05 520.46 211.60 504.47 C 197.57 484.79 186.80 462.17 183.93 437.97 C 180.95 414.54 186.50 390.47 198.14 370.05 C 212.56 344.47 234.44 323.99 257.92 306.76 M 283.07 448.05 C 277.62 483.83 273.15 519.82 271.31 555.99 C 270.50 578.86 269.66 602.26 275.58 624.58 C 282.68 649.27 293.46 672.75 305.54 695.36 C 324.70 730.63 348.25 763.86 377.56 791.45 C 401.10 813.51 429.02 831.72 460.36 840.29 C 462.69 824.47 465.38 808.71 468.66 793.07 C 472.00 777.52 475.55 761.92 481.42 747.11 C 483.26 742.65 485.30 738.17 488.49 734.51 C 491.40 731.43 495.96 730.92 499.97 730.84 C 504.44 730.85 509.62 731.80 512.31 735.79 C 517.46 743.01 520.13 751.62 522.84 759.98 C 530.63 786.22 535.23 813.28 539.41 840.29 C 568.96 832.20 595.51 815.52 618.13 795.15 C 641.12 774.48 660.51 750.08 677.22 724.15 C 692.46 700.34 705.56 675.13 715.94 648.83 C 721.34 634.70 726.44 620.23 727.75 605.06 C 730.19 580.06 728.67 554.89 726.67 529.91 C 724.35 503.20 721.07 476.56 716.96 450.06 C 704.42 401.21 691.50 352.46 678.50 303.74 C 559.32 303.78 440.15 303.73 320.97 303.76 C 308.20 351.82 295.40 399.88 283.07 448.05 Z" />
<path fill="#000000" opacity="1.00" d=" M 295.30 447.70 C 319.23 422.50 343.07 397.22 366.97 372.00 C 403.16 400.78 439.39 429.51 475.58 458.29 C 469.07 465.91 462.61 473.58 456.10 481.21 C 441.09 468.05 425.61 455.38 409.26 443.91 C 399.68 437.36 389.87 430.83 378.91 426.83 C 370.83 423.80 362.06 425.78 353.92 427.46 C 333.77 432.25 314.39 439.77 295.30 447.70 Z" />
<path fill="#000000" opacity="1.00" d=" M 524.16 458.28 C 560.37 429.53 596.55 400.75 632.78 372.03 C 656.63 397.22 680.50 422.39 704.31 447.63 C 687.68 440.72 670.84 434.22 653.48 429.39 C 646.16 427.43 638.72 425.64 631.13 425.26 C 624.22 424.82 617.76 427.79 611.73 430.78 C 599.80 437.01 588.83 444.88 578.08 452.94 C 566.24 461.92 554.78 471.41 543.61 481.22 C 537.16 473.55 530.64 465.93 524.16 458.28 Z" />
<path fill="#000000" opacity="1.00" d=" M 350.21 476.11 C 366.08 470.39 383.31 467.59 400.12 469.90 C 415.08 471.95 428.84 479.28 440.28 488.92 C 432.99 495.99 423.34 499.85 413.89 503.11 C 396.83 508.45 378.67 511.98 360.78 509.50 C 347.61 507.49 333.87 502.40 325.56 491.44 C 332.13 484.12 341.14 479.56 350.21 476.11 Z" />
<path fill="#000000" opacity="1.00" d=" M 559.43 488.93 C 571.72 478.56 586.74 470.94 602.92 469.49 C 621.06 467.89 639.55 471.47 656.14 478.86 C 662.82 481.92 669.16 485.94 674.19 491.36 C 665.31 503.20 650.21 508.20 636.04 509.87 C 618.62 511.57 601.06 508.05 584.54 502.66 C 575.53 499.50 566.42 495.63 559.43 488.93 Z" />
<path fill="#000000" opacity="1.00" d=" M 297.53 586.97 C 313.12 602.24 329.30 616.93 346.19 630.75 C 356.12 638.67 366.19 646.58 377.45 652.54 C 385.29 656.75 394.33 657.72 403.06 658.35 C 411.76 658.72 420.61 658.68 429.12 656.61 C 437.47 654.72 443.61 648.29 449.44 642.47 C 458.52 633.22 466.42 622.66 476.88 614.86 C 484.58 609.15 494.74 609.29 503.89 609.44 C 510.53 609.80 517.57 610.72 522.99 614.94 C 537.23 625.68 546.81 641.37 561.03 652.13 C 567.00 656.73 574.75 657.70 582.03 658.31 C 591.05 658.81 600.14 658.50 609.04 656.92 C 621.29 655.01 631.44 647.27 641.28 640.28 C 662.82 624.09 682.75 605.85 702.09 587.11 C 694.60 608.26 685.87 628.97 676.27 649.25 C 669.98 662.21 663.31 675.05 655.19 686.98 C 650.83 693.24 646.11 699.40 640.09 704.17 C 632.91 709.58 623.71 711.13 614.99 712.09 C 595.91 713.65 576.52 711.77 558.09 706.59 C 541.11 702.04 528.88 688.48 513.56 680.65 C 506.74 676.76 498.30 676.56 490.87 678.57 C 476.75 684.30 465.74 695.39 452.36 702.45 C 444.90 706.18 436.69 708.09 428.56 709.71 C 413.56 712.42 398.18 713.51 382.99 711.90 C 373.52 710.79 363.45 708.51 356.51 701.48 C 346.01 691.19 338.70 678.23 331.68 665.46 C 318.35 640.20 307.31 613.78 297.53 586.97 Z" />
</g>
</svg>
