<?xml version="1.0" encoding="UTF-8" ?>
<!DOCTYPE svg PUBLIC "-//W3C//DTD SVG 1.1//EN" "http://www.w3.org/Graphics/SVG/1.1/DTD/svg11.dtd">
<svg width="1000pt" height="1000pt" viewBox="0 0 1000 1000" version="1.1" xmlns="http://www.w3.org/2000/svg">
<g id="#ffffffff">
</g>
<g id="#000000ff">
<path fill="#000000" opacity="1.00" d=" M 431.64 127.59 C 478.47 105.87 525.36 84.29 572.17 62.54 C 595.41 94.79 618.15 127.41 641.19 159.81 C 656.49 181.23 671.43 202.92 686.96 224.17 C 727.67 208.28 769.03 193.86 811.22 182.39 C 832.45 176.95 853.99 171.53 876.02 171.11 C 888.07 170.55 899.13 176.11 909.73 181.11 C 926.37 189.48 942.46 198.93 958.00 209.17 C 877.52 248.37 796.50 286.50 714.90 323.33 C 728.50 393.29 741.41 463.58 747.14 534.71 C 748.90 559.39 750.13 584.27 747.46 608.93 C 745.76 625.59 740.24 641.55 734.22 657.08 C 722.71 686.08 708.05 713.80 690.91 739.86 C 673.78 765.76 653.96 790.03 630.77 810.76 C 607.93 831.11 581.53 848.01 552.24 857.34 C 520.02 867.81 484.67 868.32 452.16 858.76 C 419.07 849.18 389.46 829.97 364.42 806.60 C 337.93 781.86 315.89 752.67 297.38 721.60 C 286.49 703.22 276.75 684.14 268.51 664.43 C 262.45 649.71 256.81 634.69 253.76 619.02 C 250.09 597.89 250.43 576.32 251.34 554.97 C 252.72 526.52 255.86 498.19 259.65 469.98 C 260.02 466.73 260.84 463.52 260.66 460.24 C 215.22 468.82 169.60 476.48 124.01 484.22 C 96.99 488.71 69.97 493.26 42.90 497.43 C 47.09 486.68 51.87 476.16 56.76 465.71 C 62.63 453.62 68.63 441.48 76.50 430.54 C 83.07 421.15 93.48 415.63 103.31 410.31 C 128.58 397.44 155.54 388.33 182.47 379.63 C 212.64 370.05 243.24 361.88 273.92 354.13 C 274.10 288.14 274.54 222.15 274.99 156.16 C 324.02 147.46 373.03 138.61 422.06 129.88 C 425.27 129.24 428.64 129.02 431.64 127.59 M 605.85 370.86 C 568.79 386.08 531.61 401.45 492.78 411.64 C 473.57 416.85 454.16 421.29 434.78 425.81 C 448.28 436.69 461.93 447.39 475.49 458.19 C 469.19 465.98 462.62 473.56 456.08 481.15 C 436.68 464.42 416.88 447.88 394.88 434.63 C 383.01 436.46 371.27 439.42 359.43 441.59 C 333.58 446.78 307.65 451.61 281.74 456.55 C 277.99 482.65 274.71 508.83 272.63 535.13 C 270.92 558.42 269.70 581.89 271.99 605.19 C 273.47 621.19 278.94 636.44 284.79 651.28 C 293.29 672.53 303.66 693.01 315.38 712.65 C 333.87 743.40 355.96 772.27 382.80 796.22 C 405.18 815.98 431.26 832.61 460.41 840.09 C 462.49 825.65 464.96 811.27 467.86 796.97 C 471.24 780.67 474.87 764.33 480.77 748.73 C 483.00 743.35 485.19 737.61 489.53 733.54 C 494.41 730.28 500.86 730.34 506.37 731.69 C 511.61 732.97 514.11 738.25 516.35 742.64 C 522.38 755.76 525.78 769.89 529.08 783.89 C 533.30 802.49 536.54 821.30 539.38 840.16 C 564.86 833.50 588.09 819.91 608.45 803.42 C 630.50 785.49 649.42 763.96 665.90 740.87 C 683.67 715.89 698.75 688.99 710.98 660.88 C 717.02 646.63 722.69 632.11 726.00 616.95 C 729.60 597.52 729.27 577.62 728.52 557.95 C 727.11 527.15 723.55 496.50 719.33 465.97 C 712.97 421.04 705.08 376.33 695.96 331.88 C 666.03 345.13 636.08 358.31 605.85 370.86 Z" />
<path fill="#000000" opacity="1.00" d=" M 524.20 458.25 C 560.41 429.52 596.54 400.71 632.80 372.05 C 656.59 397.23 680.51 422.29 704.18 447.58 C 685.58 439.88 666.72 432.57 647.14 427.77 C 638.09 425.77 628.23 423.52 619.34 427.36 C 603.81 433.72 590.25 443.91 576.87 453.86 C 565.32 462.45 554.56 472.08 543.36 481.09 C 537.18 473.31 530.48 465.95 524.20 458.25 Z" />
<path fill="#000000" opacity="1.00" d=" M 363.79 472.04 C 381.36 467.92 400.46 467.49 417.33 474.65 C 425.68 478.14 433.36 483.10 440.25 488.95 C 433.40 495.61 424.40 499.38 415.54 502.55 C 401.53 507.26 386.82 510.22 372.01 510.36 C 357.94 510.14 343.29 506.82 331.98 498.05 C 329.57 496.07 327.22 493.90 325.69 491.14 C 335.83 480.73 349.94 475.42 363.79 472.04 Z" />
<path fill="#000000" opacity="1.00" d=" M 559.52 488.97 C 572.41 477.77 588.72 470.12 605.91 469.25 C 624.10 468.34 642.56 472.19 658.91 480.21 C 664.55 483.02 669.76 486.70 674.15 491.24 C 669.31 498.34 661.55 502.81 653.67 505.79 C 640.13 510.85 625.29 511.27 611.13 509.06 C 600.25 507.43 589.51 504.73 579.26 500.72 C 572.14 497.86 565.06 494.39 559.52 488.97 Z" />
<path fill="#000000" opacity="1.00" d=" M 652.54 631.56 C 669.78 617.60 686.13 602.59 702.08 587.19 C 694.99 607.12 686.82 626.68 677.87 645.86 C 669.96 662.37 661.65 678.88 650.45 693.45 C 644.92 700.68 637.91 707.41 628.80 709.59 C 611.11 714.20 592.47 713.00 574.58 710.31 C 564.88 708.60 555.04 706.49 546.26 701.87 C 533.77 694.92 523.19 684.82 510.05 679.01 C 502.26 676.36 493.14 676.65 485.90 680.79 C 475.00 686.59 465.61 694.74 455.00 701.02 C 447.26 705.54 438.44 707.69 429.74 709.49 C 414.70 712.32 399.25 713.47 383.99 712.01 C 374.19 710.94 363.69 708.75 356.50 701.47 C 345.81 690.98 338.40 677.74 331.27 664.71 C 318.31 639.87 307.29 614.01 297.86 587.63 C 320.14 608.28 342.21 629.45 367.42 646.57 C 373.75 650.69 380.36 654.78 387.86 656.35 C 397.39 658.42 407.22 658.81 416.95 658.35 C 424.82 657.81 433.23 656.71 439.54 651.53 C 452.18 641.54 461.31 627.95 473.51 617.48 C 481.50 609.62 493.34 609.01 503.90 609.44 C 510.79 609.78 518.07 610.87 523.59 615.37 C 536.29 625.28 545.43 638.89 557.57 649.40 C 560.94 652.29 564.67 654.93 569.00 656.16 C 577.74 658.65 586.94 658.71 595.95 658.38 C 604.97 657.79 614.33 656.85 622.42 652.47 C 633.25 646.73 642.97 639.16 652.54 631.56 Z" />
</g>
</svg>
