<?xml version="1.0" encoding="UTF-8" ?>
<!DOCTYPE svg PUBLIC "-//W3C//DTD SVG 1.1//EN" "http://www.w3.org/Graphics/SVG/1.1/DTD/svg11.dtd">
<svg width="1000pt" height="1000pt" viewBox="0 0 1000 1000" version="1.1" xmlns="http://www.w3.org/2000/svg">
<g id="#ffffffff">
</g>
<g id="#000000ff">
<path fill="#000000" opacity="1.00" d=" M 431.64 127.60 C 478.46 105.86 525.36 84.31 572.16 62.53 C 610.51 116.05 648.23 170.05 686.46 223.66 C 686.83 223.71 687.57 223.81 687.94 223.86 C 752.97 206.43 817.99 188.90 883.00 171.38 C 907.94 184.04 933.05 196.36 957.92 209.16 C 876.09 245.72 794.00 281.72 712.15 318.22 C 728.50 422.44 744.94 526.65 761.11 630.89 C 757.58 637.85 752.95 644.25 749.01 651.01 C 716.06 704.37 683.06 757.71 650.14 811.09 C 648.78 813.03 647.93 815.70 645.41 816.43 C 596.93 836.43 548.41 856.36 499.95 876.42 C 451.42 856.50 402.95 836.42 354.42 816.48 C 353.31 816.01 352.16 815.49 351.64 814.34 C 320.07 763.24 288.51 712.15 256.94 661.06 C 250.90 650.99 244.32 641.22 238.61 630.98 C 247.65 571.93 257.19 512.94 266.23 453.88 C 191.73 468.22 117.30 482.96 42.84 497.53 C 55.51 473.71 68.48 450.05 81.21 426.26 C 81.95 425.04 82.43 423.41 84.00 423.06 C 145.38 400.79 206.77 378.56 268.17 356.35 C 270.00 355.46 272.43 355.35 273.81 353.80 C 274.25 287.92 274.47 222.04 274.98 156.16 C 325.70 147.18 376.38 137.99 427.09 128.99 C 428.66 128.71 430.20 128.27 431.64 127.60 M 690.00 327.95 C 632.93 353.26 575.83 378.52 518.76 403.83 C 514.19 405.72 509.18 406.01 504.41 407.13 C 479.54 412.08 454.61 416.74 429.78 421.85 C 444.96 434.03 460.24 446.08 475.48 458.18 C 469.21 466.00 462.60 473.55 456.08 481.17 C 431.96 464.89 407.88 448.55 383.79 432.23 C 382.76 431.42 381.51 430.95 380.24 431.44 C 349.41 437.53 318.53 443.44 287.71 449.62 L 287.22 450.23 C 284.61 465.49 282.41 480.82 279.94 496.11 C 273.20 539.73 266.08 583.30 259.57 626.95 C 289.82 676.43 320.51 725.67 350.93 775.06 C 356.15 783.19 360.84 791.72 366.38 799.62 C 398.49 813.06 430.74 826.22 462.93 839.49 C 470.36 807.76 477.60 775.98 485.05 744.25 C 494.95 744.25 504.84 744.22 514.73 744.26 C 521.98 775.85 529.48 807.39 536.59 839.01 C 539.38 838.79 541.86 837.39 544.42 836.39 C 573.67 824.33 602.92 812.27 632.17 800.21 C 633.92 799.73 634.60 797.92 635.55 796.57 C 670.24 740.23 705.17 684.03 739.80 627.65 C 740.53 623.33 738.67 618.78 738.33 614.39 C 723.36 518.54 708.23 422.72 693.32 326.87 C 692.19 327.18 691.07 327.50 690.00 327.95 Z" />
<path fill="#000000" opacity="1.00" d=" M 524.19 458.25 C 560.41 429.53 596.54 400.71 632.80 372.04 C 647.26 387.31 661.72 402.57 676.16 417.86 C 685.29 427.68 694.83 437.14 703.64 447.24 C 677.66 440.38 651.85 432.81 625.97 425.55 C 599.15 443.50 572.50 461.69 545.79 479.79 C 544.93 480.24 543.57 481.64 542.82 480.26 C 536.61 472.92 530.34 465.63 524.19 458.25 Z" />
<path fill="#000000" opacity="1.00" d=" M 363.79 472.04 C 382.31 467.66 402.60 467.52 420.08 475.87 C 427.37 479.25 434.13 483.75 440.25 488.96 C 433.38 495.60 424.40 499.39 415.54 502.55 C 401.52 507.26 386.82 510.22 372.01 510.36 C 357.93 510.13 343.28 506.82 331.98 498.05 C 329.55 496.08 327.25 493.87 325.66 491.15 C 335.84 480.75 349.92 475.42 363.79 472.04 Z" />
<path fill="#000000" opacity="1.00" d=" M 559.51 488.97 C 572.23 477.94 588.24 470.33 605.18 469.29 C 623.11 468.24 641.31 471.92 657.56 479.54 C 663.72 482.45 669.40 486.35 674.17 491.23 C 666.98 501.39 654.67 506.37 642.87 508.82 C 624.14 512.50 604.82 508.92 586.82 503.42 C 577.05 500.15 567.06 496.22 559.51 488.97 Z" />
<path fill="#000000" opacity="1.00" d=" M 616.74 654.82 C 645.27 632.38 673.60 609.67 702.10 587.19 C 680.80 626.79 659.22 666.24 637.78 705.76 C 608.50 707.00 579.23 708.29 549.96 709.52 C 548.43 709.77 547.34 708.52 546.23 707.75 C 533.66 698.01 521.19 688.13 508.49 678.57 C 502.84 678.18 497.12 678.32 491.45 678.49 C 478.02 688.38 465.09 698.97 451.76 709.01 C 450.42 710.01 448.58 709.29 447.05 709.44 C 418.79 708.12 390.51 707.09 362.27 705.70 C 360.60 703.90 359.74 701.54 358.52 699.45 C 338.94 663.39 319.36 627.33 299.76 591.27 C 299.13 590.08 298.53 588.86 297.98 587.64 C 326.40 609.62 354.27 632.34 382.56 654.48 C 383.81 655.38 385.50 654.84 386.94 655.02 C 402.56 654.88 418.19 655.19 433.80 654.87 C 449.84 640.91 465.44 626.40 481.42 612.36 C 492.26 611.79 503.19 612.32 514.06 612.11 C 515.72 612.26 517.74 611.64 519.08 612.96 C 534.17 626.51 549.27 640.05 564.34 653.62 C 565.29 654.61 566.51 655.22 567.93 655.01 C 584.19 654.87 600.49 655.25 616.74 654.82 Z" />
</g>
</svg>
